PathFileType	4	(X/Y/Z)	/Users/itak/Documents/Research/Walk-IL/dataset/trc/00186_00008.trc
DataRate	CameraRate	NumFrames	NumMarkers	Units	OrigDataRate	OrigDataStartFrame	OrigNumFrames
100.000000	100.000000	4	53	mm	100.000000	682	780
Frame#	Time	RPSI			LPSI			L3			STRN			T10			C7			CLAV			RBAK			LBAK			LSHO			LUPA			LAEL			LAOL			LWTS			LWPS			LFRA			LIFD			LHPS			LHTS			RSHO			RUPA			RAEL			RAOL			RWTS			RWPS			RFRA			RIFD			RHTS			RHPS			RBHD			LFHD			RFHD			LBHD			LHIP			RHIP			RASI			LASI			LKNE			LTHI			LANK			LTIP			LTOE			LMT1			LMT5			LHEE			RKNE			RTHI			RANK			RTIP			RTOE			RMT1			RMT5			RHEE			
		X1	Y1	Z1	X2	Y2	Z2	X3	Y3	Z3	X4	Y4	Z4	X5	Y5	Z5	X6	Y6	Z6	X7	Y7	Z7	X8	Y8	Z8	X9	Y9	Z9	X10	Y10	Z10	X11	Y11	Z11	X12	Y12	Z12	X13	Y13	Z13	X14	Y14	Z14	X15	Y15	Z15	X16	Y16	Z16	X17	Y17	Z17	X18	Y18	Z18	X19	Y19	Z19	X20	Y20	Z20	X21	Y21	Z21	X22	Y22	Z22	X23	Y23	Z23	X24	Y24	Z24	X25	Y25	Z25	X26	Y26	Z26	X27	Y27	Z27	X28	Y28	Z28	X29	Y29	Z29	X30	Y30	Z30	X31	Y31	Z31	X32	Y32	Z32	X33	Y33	Z33	X34	Y34	Z34	X35	Y35	Z35	X36	Y36	Z36	X37	Y37	Z37	X38	Y38	Z38	X39	Y39	Z39	X40	Y40	Z40	X41	Y41	Z41	X42	Y42	Z42	X43	Y43	Z43	X44	Y44	Z44	X45	Y45	Z45	X46	Y46	Z46	X47	Y47	Z47	X48	Y48	Z48	X49	Y49	Z49	X50	Y50	Z50	X51	Y51	Z51	X52	Y52	Z52	X53	Y53	Z53	

683	6.82	-564.755126953125	1071.599731445312	1241.26025390625	-543.1490478515625	1072.40869140625	1119.800903320312	-554.2147216796875	1108.715454101562	1183.361572265625	-306.13720703125	1324.910522460938	1225.26806640625	-596.916748046875	1265.527709960938	1171.13818359375	-536.999755859375	1535.538452148438	1166.908813476562	-336.6748657226562	1437.105834960938	1209.198120117188	-618.9304809570312	1360.891723632812	1264.283203125	-526.3284301757812	1510.874145507812	1068.290649414062	-437.8885192871094	1497.5380859375	1004.500915527344	-466.4372863769531	1364.493408203125	931.8707885742188	-464.6841735839844	1147.324584960938	920.2434692382812	-513.6412353515625	1134.25927734375	993.0599365234375	-341.9137573242188	924.7183837890625	968.9393920898438	-418.3770751953125	895.497802734375	923.8220825195312	-444.9206848144531	1035.911743164062	912.1317749023438	-318.4246215820312	742.990234375	1004.731201171875	-392.99267578125	827.9032592773438	933.724609375	-324.3682861328125	844.9646606445312	954.2276611328125	-508.4089660644531	1518.042236328125	1354.351806640625	-542.3787231445312	1455.046020507812	1417.849731445312	-576.9439697265625	1175.300537109375	1486.978149414062	-556.7096557617188	1158.14111328125	1394.455932617188	-428.2200012207031	955.5136108398438	1525.280395507812	-512.2416381835938	936.17529296875	1548.90771484375	-555.3975219726562	1104.822021484375	1517.278930664062	-398.0129089355469	770.2168579101562	1514.450073242188	-400.4403991699219	864.3405151367188	1548.530883789062	-479.7179565429688	855.8074951171875	1559.990112304688	-489.7103576660156	1700.9150390625	1247.868530273438	-299.7598876953125	1743.576538085938	1151.216674804688	-324.10986328125	1745.962036132812	1278.326904296875	-470.9336853027344	1705.426635742188	1109.964233398438	-416.9887390136719	1013.20458984375	1018.712341308594	-432.9674377441406	1029.969604492188	1393.309936523438	-345.2303161621094	1060.992919921875	1352.662963867188	-306.5625	1055.800415039062	1097.054321289062	-332.622314453125	514.8914794921875	1081.319091796875	-350.588134765625	656.3859252929688	1045.888427734375	-401.7514038085938	42.81253814697266	1087.301391601562	-363.864013671875	284.6131591796875	1071.839965820312	-196.8539733886719	65.09637451171875	1147.295654296875	-250.4076995849609	56.0501594543457	1186.345092773438	-288.8114624023438	42.12434387207031	1068.288208007812	-463.5282592773438	45.48239898681641	1146.152465820312	-398.8594970703125	529.9774780273438	1367.084350585938	-374.18701171875	800.2631225585938	1405.13427734375	-462.4144287109375	31.09353256225586	1331.509521484375	-382.713134765625	408.5782775878906	1351.837524414062	-248.8616943359375	74.85866546630859	1339.95263671875	-288.1341247558594	69.24748992919922	1285.642578125	-358.4661560058594	34.20379257202148	1384.858032226562	-500.407470703125	41.09130859375	1256.150024414062	
684	6.83	-563.1092529296875	1071.303588867188	1242.455688476562	-541.3193969726562	1071.946044921875	1121.050048828125	-552.49658203125	1108.265625	1184.58740234375	-304.4454650878906	1324.529052734375	1226.636962890625	-595.0894775390625	1265.130004882812	1172.25390625	-535.3067016601562	1535.202270507812	1168.018188476562	-335.0462951660156	1436.69189453125	1210.55029296875	-617.272216796875	1360.498291015625	1265.301147460938	-524.542236328125	1510.41015625	1069.470336914062	-435.9911499023438	1497.097900390625	1005.687927246094	-464.3732604980469	1363.98583984375	933.0811157226562	-462.4695434570312	1146.822021484375	921.5452270507812	-511.585693359375	1133.77490234375	994.2597045898438	-340.0196533203125	924.0836181640625	970.4449462890625	-416.4874267578125	894.9591674804688	925.2540283203125	-442.7939147949219	1035.392456054688	913.49609375	-316.8385925292969	742.306884765625	1006.224365234375	-391.21240234375	827.3401489257812	935.175048828125	-322.6007995605469	844.3123168945312	955.75732421875	-506.8687438964844	1517.66748046875	1355.540161132812	-540.9185791015625	1454.548828125	1418.968139648438	-575.3970947265625	1174.44775390625	1487.117797851562	-555.3033447265625	1157.9169921875	1394.565185546875	-426.3704223632812	954.5656127929688	1524.057495117188	-510.2999572753906	935.0525512695312	1547.858032226562	-553.761962890625	1103.8115234375	1517.075927734375	-396.0918884277344	769.2982788085938	1512.035888671875	-398.4644165039062	863.2361450195312	1546.655517578125	-477.64306640625	854.6435546875	1558.362670898438	-488.57080078125	1700.32958984375	1249.069702148438	-298.88525390625	1743.830688476562	1152.235229492188	-323.1553344726562	1746.107055664062	1279.37109375	-469.9137268066406	1704.896484375	1111.126342773438	-415.2679443359375	1012.574951171875	1020.151062011719	-431.4413452148438	1029.88330078125	1394.69970703125	-343.6145324707031	1060.68505859375	1354.047485351562	-304.6711730957031	1055.232666015625	1098.422119140625	-332.3544616699219	514.3909301757812	1081.751098632812	-350.1023254394531	655.77294921875	1046.469848632812	-401.1505737304688	42.83946228027344	1087.020263671875	-363.1509094238281	284.2969055175781	1072.03662109375	-194.8804016113281	60.66154098510742	1147.465209960938	-249.3331756591797	53.73573684692383	1186.40185546875	-288.0022583007812	40.86273193359375	1067.842529296875	-462.8580017089844	45.87368011474609	1145.761352539062	-398.625	529.7427978515625	1367.8876953125	-372.9979248046875	800.0038452148438	1406.450073242188	-462.430419921875	31.10306739807129	1331.443237304688	-382.5657958984375	408.463134765625	1352.2744140625	-248.7147369384766	74.67905426025391	1340.206298828125	-287.9954833984375	69.06217956542969	1285.840576171875	-358.4857177734375	34.15769577026367	1384.93017578125	-500.3287353515625	41.15266799926758	1256.03515625	
685	6.84	-561.4699096679688	1071.01025390625	1243.550048828125	-539.4915771484375	1071.532958984375	1122.20458984375	-550.7930908203125	1107.848999023438	1185.715698242188	-302.7886352539062	1324.157470703125	1227.984008789062	-593.2619018554688	1264.742309570312	1173.247924804688	-533.6103515625	1534.896606445312	1169.0419921875	-333.4313659667969	1436.28857421875	1211.872314453125	-615.6488037109375	1360.13232421875	1266.19677734375	-522.7238159179688	1509.96923828125	1070.572021484375	-434.034423828125	1496.674072265625	1006.818420410156	-462.2356262207031	1363.508911132812	934.2050170898438	-460.2012634277344	1146.358032226562	922.6907348632812	-509.4906616210938	1133.299926757812	995.2875366210938	-338.1352233886719	923.4458618164062	971.7368774414062	-414.6141357421875	894.450927734375	926.4624633789062	-440.6358642578125	1034.9150390625	914.677001953125	-315.2846984863281	741.611083984375	1007.420288085938	-389.4408569335938	826.8028564453125	936.3672485351562	-320.8309326171875	843.6597900390625	957.0355224609375	-505.3836669921875	1517.30517578125	1356.646606445312	-539.5196533203125	1454.069091796875	1419.996704101562	-573.923583984375	1173.626220703125	1487.223388671875	-554.0389404296875	1157.7294921875	1394.48876953125	-424.6208801269531	953.65283203125	1522.802124023438	-508.4533081054688	933.9741821289062	1546.776489257812	-552.1992797851562	1102.840942382812	1516.83837890625	-394.2592163085938	768.422119140625	1509.643798828125	-396.5893859863281	862.1753540039062	1544.77294921875	-475.6799621582031	853.5169677734375	1556.729248046875	-487.4291687011719	1699.765991210938	1250.193237304688	-297.9859313964844	1744.074340820312	1153.208984375	-322.1982727050781	1746.2578125	1280.365478515625	-468.8637390136719	1704.366333007812	1112.218383789062	-413.6528015136719	1011.989501953125	1021.523193359375	-429.9497375488281	1029.770751953125	1396.003784179688	-342.026123046875	1060.383178710938	1355.3603515625	-302.7464904785156	1054.712524414062	1099.718872070312	-332.103759765625	513.9254150390625	1082.210205078125	-349.59130859375	655.2252197265625	1047.063232421875	-400.7624206542969	42.89299774169922	1086.738891601562	-362.5396118164062	284.0027770996094	1072.254150390625	-193.2359771728516	56.93780517578125	1147.564331054688	-248.5005187988281	51.95500183105469	1186.46630859375	-287.4218139648438	39.98921966552734	1067.419799804688	-462.4317016601562	46.09244155883789	1145.369384765625	-398.3768920898438	529.5045166015625	1368.568603515625	-371.862548828125	799.7169189453125	1407.659301757812	-462.4491882324219	31.13505172729492	1331.336547851562	-382.393310546875	408.3399658203125	1352.58984375	-248.5081939697266	74.38937377929688	1340.530883789062	-287.7838745117188	68.79422760009766	1286.076171875	-358.5162353515625	34.10352325439453	1385.006591796875	-500.1929931640625	41.22445297241211	1255.871337890625	
686	6.850000000000001	-559.8384399414062	1070.745483398438	1244.556396484375	-537.669921875	1071.19287109375	1123.27001953125	-549.103271484375	1107.4853515625	1186.751708984375	-301.1686706542969	1323.807006835938	1229.3125	-591.4429931640625	1264.3720703125	1174.130493164062	-531.9149169921875	1534.618286132812	1169.988525390625	-331.8242797851562	1435.910522460938	1213.162719726562	-614.0609130859375	1359.795776367188	1266.984741210938	-520.8706665039062	1509.557006835938	1071.589965820312	-432.025146484375	1496.27685546875	1007.895812988281	-460.033935546875	1363.075439453125	935.2476196289062	-457.8808898925781	1145.94384765625	923.6913452148438	-507.3625793457031	1132.8486328125	996.1522216796875	-336.2688293457031	922.8174438476562	972.8311767578125	-412.7537841796875	893.9869384765625	927.4566040039062	-438.4503479003906	1034.4931640625	915.6819458007812	-313.7686767578125	740.9177856445312	1008.340148925781	-387.6792602539062	826.3054809570312	937.3137817382812	-319.0612487792969	843.0211181640625	958.0768432617188	-503.9586181640625	1516.962646484375	1357.67431640625	-538.1836547851562	1453.617553710938	1420.934448242188	-572.5194091796875	1172.846923828125	1487.294677734375	-552.8785400390625	1157.563842773438	1394.26123046875	-422.9715270996094	952.7828979492188	1521.528686523438	-506.7017822265625	932.95361328125	1545.682861328125	-550.7094116210938	1101.920288085938	1516.56982421875	-392.5332946777344	767.59228515625	1507.2900390625	-394.8171691894531	861.169189453125	1542.89453125	-473.8432006835938	852.4378051757812	1555.10205078125	-486.2833557128906	1699.228881835938	1251.24267578125	-297.063720703125	1744.307006835938	1154.141723632812	-321.2353820800781	1746.416381835938	1281.312744140625	-467.7870483398438	1703.843627929688	1113.246215820312	-412.1608581542969	1011.458862304688	1022.833068847656	-428.4820861816406	1029.630981445312	1397.222900390625	-340.4672546386719	1060.095947265625	1356.606689453125	-300.8017883300781	1054.246215820312	1100.957641601562	-331.8836059570312	513.4967651367188	1082.738037109375	-349.046875	654.7476806640625	1047.71240234375	-400.5297241210938	42.96438217163086	1086.5244140625	-362.0179443359375	283.7276306152344	1072.54248046875	-191.9337615966797	53.9455680847168	1147.677490234375	-247.8805847167969	50.64107513427734	1186.605590820312	-287.0285034179688	39.46548080444336	1067.097534179688	-462.2013854980469	46.15386962890625	1145.043823242188	-398.0926208496094	529.2593383789062	1369.117797851562	-370.7650451660156	799.3927612304688	1408.758666992188	-462.4690551757812	31.20252799987793	1331.176391601562	-382.186279296875	408.2005004882812	1352.779907226562	-248.2428131103516	73.96379852294922	1340.917236328125	-287.489990234375	68.42857360839844	1286.338012695312	-358.5582885742188	34.04032135009766	1385.083618164062	-499.986572265625	41.29589462280273	1255.650390625	
